<?xml version="1.0" standalone="no"?>
<!DOCTYPE svg PUBLIC "-//W3C//DTD SVG 20010904//EN"
 "http://www.w3.org/TR/2001/REC-SVG-20010904/DTD/svg10.dtd">
<svg version="1.0" xmlns="http://www.w3.org/2000/svg"
 width="32.000000pt" height="32.000000pt" viewBox="0 0 32.000000 32.000000"
 preserveAspectRatio="xMidYMid meet">

<g transform="translate(0.000000,32.000000) scale(0.100000,-0.100000)" stroke="none">
<path fill="#41D1FF" d="M31 287 c-14 -18 -6 -60 18 -81 9 -8 32 -15 51 -14 19 0 42 -1 50 -3
8 -2 15 1 15 6 0 6 -7 9 -17 8 -14 -2 -15 2 -5 27 13 34 27 40 27 11 0 -24 19
-39 56 -47 33 -6 57 14 68 57 9 39 -13 52 -71 45 -58 -7 -65 -7 -129 0 -37 4
-53 2 -63 -9z m93 -3 c19 -7 21 -45 4 -62 -7 -7 -26 -12 -44 -12 -27 0 -34 5
-43 32 -9 24 -8 34 1 40 15 9 60 10 82 2z m152 -9 c4 -8 3 -26 0 -40 -5 -20
-13 -25 -39 -25 -38 0 -57 15 -57 46 0 26 12 32 58 33 20 1 35 -5 38 -14z"/>
<path fill="#41D1FF" d="M91 158 c-32 -20 -34 -21 -46 -4 -9 11 -15 13 -20 7 -12 -20 6 -52
33 -57 22 -4 27 -11 28 -35 1 -17 7 -36 14 -42 9 -10 11 -2 8 34 -3 40 0 47
20 57 20 9 22 9 12 -3 -10 -12 -9 -16 4 -21 9 -3 23 -3 32 0 13 5 14 9 4 21
-10 12 -8 12 12 3 20 -10 23 -17 20 -57 -3 -34 -1 -43 7 -35 6 6 13 24 14 42
2 24 7 32 29 36 27 5 45 37 33 57 -5 6 -12 4 -20 -7 -12 -17 -14 -17 -41 1
-42 27 -103 28 -143 3z"/>
</g>
</svg>
